<?xml version="1.0" encoding="UTF-8"?>
<svg width="24px" height="20px" viewBox="0 0 24 20" version="1.1" xmlns="http://www.w3.org/2000/svg" xmlns:xlink="http://www.w3.org/1999/xlink">
    <title>twitter</title>
    <g id="sidebar-v2" stroke="none" stroke-width="1" fill="none" fill-rule="evenodd">
        <g id="twitter" fill="#4D9FEB" fill-rule="nonzero">
            <path d="M21.5426087,4.82541054 C21.5530435,5.03543647 21.5569565,5.24805532 21.5569565,5.45808124 C21.5569565,11.9273984 16.6043478,19.3846154 7.54826087,19.3846154 C4.76608696,19.3846154 2.17956522,18.5743302 0,17.184529 C0.386086957,17.2299049 0.777391304,17.2532411 1.17391304,17.2532411 C3.4826087,17.2532411 5.60478261,16.4701815 7.28869565,15.1594641 C5.13521739,15.119274 3.31565217,13.7061366 2.68956522,11.761452 C2.98956522,11.8171997 3.29869565,11.8470182 3.61565217,11.8470182 C4.06565217,11.8470182 4.50130435,11.7886776 4.91347826,11.6771824 C2.66086957,11.2260156 0.963913043,9.24891962 0.963913043,6.87640449 C0.963913043,6.85566119 0.963913043,6.83621435 0.963913043,6.81547105 C1.62782609,7.18236819 2.38826087,7.40276577 3.19434783,7.4286949 C1.87304348,6.54969749 1.00304348,5.05358686 1.00304348,3.35393258 C1.00304348,2.45808124 1.24565217,1.61668107 1.67086957,0.893258427 C4.09826087,3.85566119 7.72826087,5.80293863 11.82,6.00777874 C11.7365217,5.64866033 11.6934783,5.27657736 11.6934783,4.89152982 C11.6934783,2.18971478 13.8965217,0 16.616087,0 C18.0326087,0 19.3121739,0.592480553 20.2108696,1.54407952 C21.3313043,1.32368194 22.3852174,0.916594641 23.3373913,0.356525497 C22.9695652,1.49870354 22.1882609,2.45808124 21.1721739,3.06352636 C22.1686957,2.94425238 23.1156522,2.68366465 24,2.29343129 C23.34,3.2761452 22.5052174,4.13699222 21.5426087,4.82541054 Z" id="Path"></path>
        </g>
    </g>
</svg>